<svg width="16" height="28" viewBox="0 0 16 28" fill="none" xmlns="http://www.w3.org/2000/svg">
<g id="img_signs_RUB" clip-path="url(#clip0_101_1169)">
<path id="&#226;&#130;&#189;" d="M11.5804 18.931C13.0328 18.931 14.1429 18.5907 14.9107 17.9102C15.6846 17.2235 16.0715 16.2756 16.0715 15.0664C16.0715 13.9605 15.6846 13.046 14.9107 12.3229C14.1429 11.5938 13.0328 11.2292 11.5804 11.2292H8.5536V24.5H10.125V12.6419H11.5804C12.5863 12.6419 13.3066 12.888 13.7411 13.3802C14.1756 13.8724 14.3929 14.4406 14.3929 15.0847C14.3929 15.8199 14.1667 16.4123 13.7143 16.862C13.2619 17.3056 12.5506 17.5274 11.5804 17.5274H7.14288V18.931H11.5804ZM13.5982 20.4623H7.14288V21.8841H13.5982V20.4623Z" fill="black"/>
</g>
<defs>
<clipPath id="clip0_101_1169">
<rect width="16" height="28" fill="white"/>
</clipPath>
</defs>
</svg>
