<svg width="16" height="28" viewBox="0 0 16 28" fill="none" xmlns="http://www.w3.org/2000/svg">
<g id="img_signs_RUB" clip-path="url(#clip0_101_1538)">
<path id="&#226;&#130;&#189;" d="M11.5803 18.931C13.0327 18.931 14.1428 18.5907 14.9107 17.9102C15.6845 17.2235 16.0714 16.2756 16.0714 15.0664C16.0714 13.9605 15.6845 13.046 14.9107 12.3229C14.1428 11.5938 13.0327 11.2292 11.5803 11.2292H8.55354V24.5H10.125V12.6419H11.5803C12.5863 12.6419 13.3065 12.888 13.741 13.3802C14.1756 13.8724 14.3928 14.4406 14.3928 15.0847C14.3928 15.8199 14.1666 16.4123 13.7143 16.862C13.2619 17.3056 12.5506 17.5274 11.5803 17.5274H7.14282V18.931H11.5803ZM13.5982 20.4623H7.14282V21.8841H13.5982V20.4623Z" fill="white"/>
</g>
<defs>
<clipPath id="clip0_101_1538">
<rect width="16" height="28" fill="white"/>
</clipPath>
</defs>
</svg>
