<svg width="32" height="24" viewBox="0 0 32 24" fill="none" xmlns="http://www.w3.org/2000/svg">
<g id="img_flag_EUR" clip-path="url(#clip0_101_1021)">
<rect width="32" height="24" fill="white"/>
<g id="flag">
<mask id="mask0_101_1021" style="mask-type:luminance" maskUnits="userSpaceOnUse" x="0" y="0" width="32" height="24">
<rect id="mask" width="32" height="24" fill="white"/>
</mask>
<g mask="url(#mask0_101_1021)">
<path id="Vector" d="M32 0H0V24H32V0Z" fill="#003399"/>
<g id="Union">
<path d="M16 4.14701L16.8117 4.75415L16.5017 3.77181L17.3138 3.16431H16.3101L16 2.18176L15.69 3.16431H14.6863L15.4984 3.77181L15.1884 4.75415L16 4.14701Z" fill="#FFCC00"/>
<path d="M16 19.2457L15.6899 20.2283H14.6863L15.4984 20.8358L15.1884 21.8181L16 21.211L16.8117 21.8181L16.5017 20.8358L17.3138 20.2283H16.3101L16 19.2457Z" fill="#FFCC00"/>
<path d="M7.7132 10.7137L7.40312 11.6963H6.40002L7.21168 12.3035L6.90157 13.2861L7.71348 12.6788L8.52539 13.2861L8.21528 12.3035L9.02693 11.6963H8.02328L7.7132 10.7137Z" fill="#FFCC00"/>
<path d="M11.0447 5.89722L11.8566 5.28987L12.6685 5.89722L12.3584 4.91455L13.1701 4.30738H12.167L11.8569 3.3248L11.5468 4.30738H10.5432L11.3548 4.91455L11.0447 5.89722Z" fill="#FFCC00"/>
<path d="M9.63552 9.02016L9.32541 8.03749L10.1371 7.43032H9.13342L8.82334 6.44774L8.51326 7.43032H7.51016L8.32181 8.03749L8.0117 9.02016L8.82361 8.41281L9.63552 9.02016Z" fill="#FFCC00"/>
<path d="M10.1371 15.9623H9.13341L8.82334 14.9797L8.51327 15.9623H7.51016L8.32181 16.5694L8.0117 17.5521L8.82361 16.9448L9.63552 17.5521L9.32541 16.5694L10.1371 15.9623Z" fill="#FFCC00"/>
<path d="M13.1701 19.0852H12.167L11.8569 18.1026L11.5468 19.0852H10.5432L11.3548 19.6924L11.0447 20.6751L11.8566 20.0677L12.6685 20.6751L12.3584 19.6924L13.1701 19.0852Z" fill="#FFCC00"/>
<path d="M24.2868 10.7137L24.5969 11.6963H25.6L24.7884 12.3035L25.0985 13.2861L24.2866 12.6788L23.4747 13.2861L23.7848 12.3035L22.9731 11.6963H23.9768L24.2868 10.7137Z" fill="#FFCC00"/>
<path d="M20.9553 5.89722L20.1434 5.28987L19.3315 5.89722L19.6416 4.91455L18.83 4.30738H19.8331L20.1432 3.3248L20.4532 4.30738H21.4569L20.6452 4.91455L20.9553 5.89722Z" fill="#FFCC00"/>
<path d="M22.3645 9.02016L22.6746 8.03749L21.863 7.43032H22.8666L23.1767 6.44774L23.4868 7.43032H24.4899L23.6782 8.03749L23.9883 9.02016L23.1764 8.41281L22.3645 9.02016Z" fill="#FFCC00"/>
<path d="M21.863 15.9623H22.8666L23.1767 14.9797L23.4868 15.9623H24.4899L23.6782 16.5694L23.9883 17.5521L23.1764 16.9448L22.3645 17.5521L22.6746 16.5694L21.863 15.9623Z" fill="#FFCC00"/>
<path d="M20.1432 18.1026L19.8331 19.0852H18.83L19.6416 19.6924L19.3315 20.6751L20.1434 20.0677L20.9553 20.6751L20.6452 19.6924L21.4569 19.0852H20.4532L20.1432 18.1026Z" fill="#FFCC00"/>
</g>
<path id="Union (Stroke)" fill-rule="evenodd" clip-rule="evenodd" d="M17.2167 5.32753L16 4.41734L14.7832 5.32753L15.248 3.85485L14.0332 2.94615H15.5346L16 1.47144L16.4654 2.94615H17.9667L16.752 3.85485L17.2167 5.32753ZM16.5016 3.77183L17.3137 3.16433H16.31L16 2.18178L15.6899 3.16433H14.6862L15.4983 3.77183L15.1883 4.75417L16 4.14703L16.8116 4.75417L16.5016 3.77183ZM15.6899 20.2283L16 19.2457L16.3101 20.2283H17.3137L16.5016 20.8358L16.8116 21.8181L16 21.211L15.1883 21.8181L15.4983 20.8358L14.6862 20.2283H15.6899ZM15.248 20.9188L14.0332 20.0101H15.5346L16 18.5354L16.4654 20.0101H17.9667L16.752 20.9188L17.2167 22.3915L16 21.4813L14.7832 22.3915L15.248 20.9188ZM7.40307 11.6963L7.71315 10.7137L8.02323 11.6963H9.02688L8.21523 12.3035L8.52534 13.2862L7.71343 12.6788L6.90152 13.2862L7.21163 12.3035L6.39997 11.6963H7.40307ZM6.96126 12.3865L5.74695 11.4781H7.24776L7.71315 10.0034L8.17855 11.4781H9.67991L8.4656 12.3865L8.93044 13.8595L7.71343 12.9491L6.49641 13.8595L6.96126 12.3865ZM11.8566 5.28989L11.0447 5.89724L11.3548 4.91457L10.5431 4.3074H11.5468L11.8568 3.32482L12.1669 4.3074H13.17L12.3584 4.91457L12.6685 5.89724L11.8566 5.28989ZM12.6087 4.99759L13.0736 6.4706L11.8566 5.56021L10.6395 6.4706L11.1044 4.99759L9.89008 4.08922H11.3914L11.8568 2.61447L12.3222 4.08922H13.823L12.6087 4.99759ZM9.13337 7.43034H10.137L9.32536 8.03751L9.63547 9.02018L8.82356 8.41283L8.01165 9.02018L8.32176 8.03751L7.51011 7.43034H8.5132L8.82329 6.44776L9.13337 7.43034ZM8.35789 7.21216H6.85708L8.07139 8.12053L7.60654 9.59354L8.82356 8.68315L10.0406 9.59354L9.57573 8.12053L10.79 7.21216H9.28868L8.82329 5.73741L8.35789 7.21216ZM8.51322 15.9623L8.82329 14.9797L9.13335 15.9623H10.137L9.32536 16.5695L9.63547 17.5521L8.82356 16.9448L8.01165 17.5521L8.32176 16.5695L7.51011 15.9623H8.51322ZM8.07139 16.6525L6.85708 15.7441H8.3579L8.82329 14.2694L9.28867 15.7441H10.79L9.57573 16.6525L10.0406 18.1255L8.82356 17.2151L7.60654 18.1255L8.07139 16.6525ZM11.5468 19.0852L11.8568 18.1027L12.1669 19.0852H13.17L12.3584 19.6924L12.6685 20.6751L11.8566 20.0677L11.0447 20.6751L11.3548 19.6924L10.5431 19.0852H11.5468ZM11.1044 19.7754L9.89008 18.8671H11.3914L11.8568 17.3923L12.3222 18.8671H13.823L12.6087 19.7754L13.0736 21.2484L11.8566 20.338L10.6395 21.2484L11.1044 19.7754ZM23.9767 11.6963L24.2868 10.7137L24.5969 11.6963H25.6L24.7883 12.3035L25.0984 13.2862L24.2865 12.6788L23.4746 13.2862L23.7847 12.3035L22.9731 11.6963H23.9767ZM23.5344 12.3865L22.32 11.4781H23.8214L24.2868 10.0034L24.7522 11.4781H26.253L25.0387 12.3865L25.5035 13.8595L24.2865 12.9491L23.0695 13.8595L23.5344 12.3865ZM20.1434 5.28989L19.3315 5.89724L19.6416 4.91457L18.8299 4.3074H19.833L20.1431 3.32482L20.4532 4.3074H21.4568L20.6452 4.91457L20.9553 5.89724L20.1434 5.28989ZM20.8956 4.99759L21.3604 6.4706L20.1434 5.56021L18.9264 6.4706L19.3912 4.99759L18.1769 4.08922H19.6777L20.1431 2.61447L20.6085 4.08922H22.1099L20.8956 4.99759ZM22.6746 8.03751L21.8629 7.43034H22.8666L23.1767 6.44776L23.4867 7.43034H24.4898L23.6782 8.03751L23.9883 9.02018L23.1764 8.41283L22.3645 9.02018L22.6746 8.03751ZM23.1764 8.68315L21.9594 9.59354L22.4242 8.12053L21.2099 7.21216H22.7113L23.1767 5.73741L23.6421 7.21216H25.1429L23.9286 8.12053L24.3934 9.59354L23.1764 8.68315ZM22.8666 15.9623L23.1767 14.9797L23.4867 15.9623H24.4898L23.6782 16.5695L23.9883 17.5521L23.1764 16.9448L22.3645 17.5521L22.6746 16.5695L21.8629 15.9623H22.8666ZM22.4242 16.6525L21.2099 15.7441H22.7113L23.1767 14.2694L23.642 15.7441H25.1429L23.9286 16.6525L24.3934 18.1255L23.1764 17.2151L21.9594 18.1255L22.4242 16.6525ZM19.833 19.0852L20.1431 18.1027L20.4532 19.0852H21.4568L20.6452 19.6924L20.9553 20.6751L20.1434 20.0677L19.3315 20.6751L19.6416 19.6924L18.8299 19.0852H19.833ZM19.3912 19.7754L18.1769 18.8671H19.6777L20.1431 17.3923L20.6085 18.8671H22.1099L20.8956 19.7754L21.3604 21.2484L20.1434 20.338L18.9264 21.2484L19.3912 19.7754Z" fill="#FFCC00"/>
</g>
</g>
</g>
<defs>
<clipPath id="clip0_101_1021">
<rect width="32" height="24" fill="white"/>
</clipPath>
</defs>
</svg>
